<svg width="25" height="16" fill="none" xmlns="http://www.w3.org/2000/svg">
    <path fill-rule="evenodd" clip-rule="evenodd" d="M6.078 11.587a18.891 18.891 0 0 1-1.63-1.063A21.924 21.924 0 0 1 1.563 8a21.926 21.926 0 0 1 2.887-2.524A17.438 17.438 0 0 1 7.69 3.594 6.26 6.26 0 0 0 5.88 8c0 1.1.286 2.135.785 3.036l1.006-.945A4.923 4.923 0 0 1 7.208 8a4.96 4.96 0 0 1 4.955-4.955c.859 0 1.667.22 2.372.606l1.737-1.63c-1.395-.505-2.777-.766-4.11-.766-2.738 0-5.685 1.096-8.522 3.168C1.52 5.973.211 7.507.157 7.571a.664.664 0 0 0 0 .858c.054.064 1.363 1.598 3.483 3.147.475.347.952.664 1.431.956l1.007-.945zm18.09-4.016c-.054-.064-1.362-1.598-3.482-3.148a20.392 20.392 0 0 0-1.432-.955l-1.006.945c.603.35 1.151.715 1.63 1.063A21.92 21.92 0 0 1 22.763 8a21.918 21.918 0 0 1-2.887 2.524 17.463 17.463 0 0 1-3.242 1.882 6.26 6.26 0 0 0 1.025-7.442l-1.007.945c.298.636.464 1.344.464 2.09a4.96 4.96 0 0 1-4.954 4.956c-.859 0-1.667-.22-2.372-.606l-1.737 1.63c1.394.505 2.777.766 4.109.766 2.738 0 5.686-1.096 8.523-3.168 2.12-1.55 3.428-3.084 3.483-3.148a.664.664 0 0 0 0-.858zm-12.005 3.525A3.096 3.096 0 0 0 15.259 8c0-.243-.03-.478-.084-.704l-3.908 3.667c.284.086.584.133.896.133zM9.067 8c0 .243.03.478.083.704l3.909-3.667A3.096 3.096 0 0 0 9.067 8zM19.527.18 3.89 14.853a.664.664 0 0 0 .908.967L20.435 1.147a.664.664 0 0 0-.908-.967z" fill="#4B8693"/>
</svg>
