<svg width="27" height="13" fill="none" xmlns="http://www.w3.org/2000/svg">
    <path d="M13 11.617c-3.308 0-6-2.29-6-5.106s2.692-5.107 6-5.107 6 2.291 6 5.107c0 2.815-2.692 5.106-6 5.106zm0-9.249c-2.684 0-4.867 1.858-4.867 4.143 0 2.284 2.183 4.142 4.867 4.142s4.867-1.858 4.867-4.142c0-2.284-2.183-4.143-4.867-4.143z" fill="#4B8693"/>
    <path d="M1.308 7.324C5.346 10.504 9.418 12.1 13.5 12.1c4.08 0 8.155-1.597 12.192-4.776.258-.204.408-.503.408-.824 0-.32-.15-.62-.408-.824C21.655 2.496 17.581.9 13.5.9 9.42.9 5.345 2.496 1.308 5.676A1.047 1.047 0 0 0 .9 6.5c0 .32.15.62.408.824zM13.5 2.112c3.705 0 7.417 1.459 11.189 4.388-3.772 2.93-7.484 4.387-11.189 4.387S6.083 9.43 2.31 6.5C6.084 3.57 9.796 2.112 13.5 2.112z" fill="#4B8693" stroke="#4B8693" stroke-width=".2"/>
    <path d="M12.9 8.894c-1.599 0-2.9-1.107-2.9-2.468s1.3-2.469 2.9-2.469c1.6 0 2.9 1.108 2.9 2.469 0 1.36-1.3 2.468-2.9 2.468z" fill="#4B8693"/>
</svg>
